<?xml version="1.0" standalone="no"?><!DOCTYPE svg PUBLIC "-//W3C//DTD SVG 1.1//EN" "http://www.w3.org/Graphics/SVG/1.1/DTD/svg11.dtd"><svg t="1712562023740" class="icon" viewBox="0 0 1024 1024" version="1.1" xmlns="http://www.w3.org/2000/svg" p-id="5380" xmlns:xlink="http://www.w3.org/1999/xlink" width="200" height="200"><path d="M266.624 350.08l-16.512 30.08-37.056 1.088c-34.112 0.704-37.376 1.472-37.376 8.064 0 9.152 9.536 13.952 34.112 16.896 16.512 1.792 19.84 3.648 18.304 8.384-5.12 13.568-45.44 65.664-71.488 92.096-15.744 15.744-28.608 29.312-28.608 30.72 0 1.152 4.416 2.24 10.24 2.24 12.16 0 37.12-11.008 53.952-24.192 11.328-8.768 12.8-8.768 15.04-3.264 1.472 3.648 0 18.304-3.328 32.64-3.328 14.272-8.768 39.936-12.096 57.152a543.936 543.936 0 0 1-28.992 93.184c-2.944 6.208-1.792 6.976 12.48 4.736 29.696-3.648 51.008-23.808 57.216-53.888 4.736-23.104 26.432-64.896 42.176-82.176 24.576-26.752 72.256-46.208 112.192-46.208 12.16 0 12.48 0.384 12.48 14.336v13.952l-30.464 1.792c-19.008 1.472-36.992 4.8-47.296 9.6-50.56 22.336-52.032 86.848-2.176 116.928 20.16 12.48 39.232 17.6 81.024 22.4l24.576 2.88 3.648-13.888c2.24-7.68 5.12-23.488 6.656-34.88 2.56-20.48 2.88-21.248 13.568-20.864 6.208 0.32 23.04 7.68 38.08 16.128a551.04 551.04 0 0 0 121.408 48c40.32 10.688 110.016 13.248 154.048 5.504 56.448-9.856 109.952-39.552 109.952-60.8 0-5.568-4.736-4.096-30.4 9.088-43.264 22.4-76.672 28.992-132.416 26.432-32.96-1.472-52.8-4.416-77.376-11.712-38.08-11.008-85.76-33.024-88.704-40.704-1.088-2.56 3.264-11.008 9.152-17.984 17.92-20.16 20.544-57.92 5.12-78.464-7.68-10.624-35.904-33.408-41.408-33.408-4.416 0-9.6 13.248-12.48 34.112-2.56 15.808-1.856 17.28 6.272 20.544 10.944 4.032 28.544 24.192 28.544 33.024 0 10.624-10.944 22.4-20.864 22.4-9.152 0-53.568-21.696-63.104-31.232-4.352-4.032-4.352-8.768-1.088-26.048 6.592-31.168 5.504-75.136-1.472-85.056-2.944-4.416-13.568-12.48-23.424-17.28-16.192-8-22.784-9.088-59.456-9.088-22.72 0-55.36 2.56-72.576 5.44-17.28 2.944-31.552 5.504-31.936 5.504-4.352 0 0.768-11.712 10.24-22.72 14.336-17.6 24.64-20.16 93.184-23.04 74.816-3.328 119.168-11.392 113.28-20.928-1.408-1.92-33.728-3.328-74.432-2.944-100.48 0.704-95.68 1.088-95.68-6.592 0-3.712 2.56-10.24 5.888-14.72 6.976-10.24 4.736-13.568-16.512-24.512L283.136 320l-16.512 30.08z m128.704 117.76c4.416 3.968 7.68 8 7.68 9.088 0 1.472-15.36 5.504-33.728 8.832-33.344 6.208-61.952 17.92-94.208 37.76l-16.128 10.24 1.792-23.424c1.856-26.432 4.416-28.992 39.232-42.88 27.136-11.008 82.88-10.688 95.36 0.32z m-14.272 128.64c8.768 10.688-4.48 67.84-15.424 67.84-15.04 0-39.616-27.52-39.616-44.736 0-7.68 11.008-21.248 19.84-24.96 12.416-5.12 30.08-3.968 35.2 1.92z m380.224-261.12c-2.944 4.8-13.888 18.048-24.576 29.44-27.52 30.4-38.08 27.84-41.024-9.216-1.088-11.712-2.944-22.4-4.032-23.872-1.472-1.408-10.688 0.768-20.16 4.8l-17.28 7.36 1.088 20.16 1.472 20.48-17.6 2.56a334.528 334.528 0 0 1-31.488 2.24c-15.424 0-21.632 7.36-13.952 16.512 3.648 4.416 13.952 5.504 45.44 5.504 22.4 0 43.264 1.856 46.208 3.648 10.624 6.592-1.472 16.128-35.904 27.52-18.368 5.888-34.88 12.48-36.672 14.656-1.856 1.856-9.6 37.76-17.28 79.552-11.328 62.016-12.8 77.44-9.152 81.792 6.272 7.36 57.984 23.488 92.032 28.224 40.32 5.504 100.48-1.792 108.16-13.568 3.008-4.352 10.304-35.904 16.576-70.016 16.832-93.12 16.832-86.528 3.264-101.952-16.128-17.92-23.488-21.632-51.328-23.808-18.368-1.856-24.192-3.712-24.96-8.448-2.176-11.008 15.04-17.6 61.248-23.104 47.68-5.888 71.872-13.184 68.928-20.928-1.088-3.648-10.24-4.352-34.816-3.264-28.992 1.088-34.112 0.32-35.904-5.12-1.472-4.096 1.408-10.24 9.536-18.368l12.096-12.8-20.928-9.216a251.264 251.264 0 0 0-22.016-9.152 33.024 33.024 0 0 0-6.976 8.448z m-32.256 120.32c34.496 7.36 38.848 28.992 5.888 28.992-8.832 0-30.848 4.032-49.152 8.768-18.304 4.8-34.112 7.68-35.2 6.592-4.736-4.736-1.088-23.04 6.208-30.08a36.224 36.224 0 0 1 9.92-7.296c1.088-0.384 10.624-2.56 20.544-5.504 23.04-6.208 20.16-6.208 41.792-1.472z m26.048 67.84c9.536 9.6-3.328 16.512-38.144 20.544-17.28 1.856-40.704 6.592-52.096 10.24-25.984 9.216-27.136 9.216-27.136 0 0-12.416 19.072-29.696 38.528-35.2 22.4-6.208 70.784-3.648 78.848 4.48z m-11.712 65.664c1.088 15.04-2.944 20.16-19.84 24.192-22.72 5.12-93.12-2.944-93.12-11.008 0-4.736 12.096-14.272 25.6-20.16 9.216-4.032 23.168-5.504 49.536-4.8l36.672 0.768 1.152 11.008zM524.416 417.536a258.56 258.56 0 0 0-4.032 25.344c0 2.56 12.096 13.184 26.752 23.424l26.432 18.688 1.088-11.712c2.944-26.368-9.92-50.56-35.584-68.928l-10.24-7.36-4.48 20.544z" fill="#FFFFFF" p-id="5381"></path></svg>